# xmcd
#
# Track frame offsets:
# 150
# 25425
# 38982
# 53857
# 77900
# 99837
# 127702
# 164282
# 177317
# 190572
# 208377
# 230285
# 248557
# 266047
#
# Disc length: 3919 seconds
#
#
# Revision: 4
# Processed by: cddbd v1.5.1PL2 Copyright (c) Steve Scherf et al.
# Submitted via: FreeRIP 2.942 
#
DISCID=b40f4d0e
DTITLE=Stevie Ray Vaughan And Double Trouble - Don't Mess With Texas
DYEAR=1991
DGENRE=Bluesrock
TTITLE0=Stevie's Blues
TTITLE1=Dust my Blues
TTITLE2=Guitar Boogie
TTITLE3=The Sky is Crying
TTITLE4=I'm Leaving You
TTITLE5=All Your Love
TTITLE6=Tin Pan Alley
TTITLE7=Love's Struck
TTITLE8=Tell Me
TTITLE9=Rocking Daddy
TTITLE10=Little Wing
TTITLE11=Tore Down
TTITLE12=I'm Crying
TTITLE13=Texas Flood
EXTD=
EXTT0=
EXTT1=
EXTT2=
EXTT3=
EXTT4=
EXTT5=
EXTT6=
EXTT7=
EXTT8=
EXTT9=
EXTT10=
EXTT11=
EXTT12=
EXTT13=
PLAYORDER=
